<mxfile host="app.diagrams.net" modified="2024-05-15T21:22:33.458Z" agent="Mozilla/5.0 (Windows NT 10.0; Win64; x64) AppleWebKit/537.36 (KHTML, like Gecko) Chrome/123.0.0.0 Safari/537.36 OPR/109.0.0.0" version="24.4.0" etag="LOy-LJj4bKG0QlqXAf08" type="github">
  <diagram name="Page-1" id="dNINHUES0Oyb9ECxuEoB">
    <mxGraphModel>
      <root>
        <mxCell id="0" />
        <mxCell id="1" parent="0" />
      </root>
    </mxGraphModel>
  </diagram>
</mxfile>
